<svg width="27" height="27" viewBox="0 0 27 27" fill="none" xmlns="http://www.w3.org/2000/svg">
<path fill-rule="evenodd" clip-rule="evenodd" d="M13.453 1.62769C6.69182 1.62769 1.21558 7.21215 1.21558 14.1069C1.21558 19.629 4.71854 24.2931 9.58291 25.9466C10.1948 26.0558 10.4242 25.6814 10.4242 25.3539C10.4242 25.0575 10.4089 24.0747 10.4089 23.0296C7.33429 23.6068 6.53885 22.2652 6.2941 21.5633C6.15643 21.2045 5.55986 20.097 5.03977 19.8006C4.61146 19.5666 3.99959 18.9894 5.02447 18.9738C5.98817 18.9582 6.67652 19.8786 6.90598 20.253C8.00734 22.1405 9.76647 21.6101 10.4701 21.2825C10.5772 20.4714 10.8984 19.9254 11.2503 19.6134C8.52743 19.3014 5.68223 18.2251 5.68223 13.4518C5.68223 12.0947 6.15643 10.9715 6.93657 10.098C6.81419 9.786 6.38589 8.50687 7.05894 6.79098C7.05894 6.79098 8.08383 6.4634 10.4242 8.0701C11.4032 7.78932 12.4434 7.64892 13.4836 7.64892C14.5238 7.64892 15.5639 7.78932 16.5429 8.0701C18.8833 6.4478 19.9082 6.79098 19.9082 6.79098C20.5813 8.50687 20.153 9.786 20.0306 10.098C20.8107 10.9715 21.2849 12.0791 21.2849 13.4518C21.2849 18.2407 18.4244 19.3014 15.7016 19.6134C16.1452 20.0034 16.5276 20.7521 16.5276 21.9221C16.5276 23.5912 16.5123 24.9327 16.5123 25.3539C16.5123 25.6814 16.7418 26.0714 17.3537 25.9466C22.1875 24.2931 25.6904 19.6134 25.6904 14.1069C25.6904 7.21215 20.2142 1.62769 13.453 1.62769Z" fill="white"/>
</svg>
