<svg width="26" height="27" viewBox="0 0 26 27" fill="none" xmlns="http://www.w3.org/2000/svg">
<rect width="25.539" height="26.0437" rx="3" fill="white"/>
<path d="M5.05447 2.03467C3.80561 2.03467 2.79321 3.06708 2.79321 4.34062C2.79321 5.61416 3.80561 6.64657 5.05447 6.64657C6.30334 6.64657 7.31574 5.61416 7.31574 4.34062C7.31574 3.06708 6.30334 2.03467 5.05447 2.03467Z" fill="black"/>
<path d="M2.92623 8.54558C2.85277 8.54558 2.79321 8.60631 2.79321 8.68123V22.7882C2.79321 22.8631 2.85277 22.9239 2.92623 22.9239H7.18272C7.25618 22.9239 7.31574 22.8631 7.31574 22.7882V8.68123C7.31574 8.60631 7.25618 8.54558 7.18272 8.54558H2.92623Z" fill="black"/>
<path d="M9.84303 8.54558C9.76957 8.54558 9.71001 8.60631 9.71001 8.68123V22.7882C9.71001 22.8631 9.76957 22.9239 9.84303 22.9239H14.0995C14.173 22.9239 14.2325 22.8631 14.2325 22.7882V15.1921C14.2325 14.6525 14.4427 14.135 14.8169 13.7534C15.1911 13.3718 15.6986 13.1575 16.2278 13.1575C16.7569 13.1575 17.2644 13.3718 17.6386 13.7534C18.0128 14.135 18.223 14.6525 18.223 15.1921V22.7882C18.223 22.8631 18.2826 22.9239 18.356 22.9239H22.6125C22.686 22.9239 22.7455 22.8631 22.7455 22.7882V13.4345C22.7455 10.8011 20.4996 8.7409 17.9302 8.9791C17.1378 9.05256 16.3544 9.25344 15.6228 9.57316L14.2325 10.1808V8.68123C14.2325 8.60631 14.173 8.54558 14.0995 8.54558H9.84303Z" fill="black"/>
</svg>
